<?xml version="1.0" encoding="utf-8"?>
<!-- Generator: Adobe Illustrator 24.0.0, SVG Export Plug-In . SVG Version: 6.00 Build 0)  -->
<svg version="1.1" xmlns="http://www.w3.org/2000/svg" xmlns:xlink="http://www.w3.org/1999/xlink" x="0px" y="0px"
	 viewBox="0 0 125 134" style="enable-background:new 0 0 125 134;" xml:space="preserve">
<g id="Locked_Layer">
</g>
<g id="Working_Layer">
	<g>
		<g>
			<path d="M17.97,125.4c22.41-15.67,41.75-35.41,56.93-58.16c4.2-6.3,8.06-12.83,11.57-19.54c1.21-2.32,0.67-5.54-1.79-6.84
				c-2.52-1.33-5.28-0.53-6.84,1.79c-8.92,13.28-17.42,26.92-23.13,41.94c-2.84,7.46-4.9,15.26-5.75,23.21
				c-0.8,7.5,1.33,15.7,9,18.63c4.45,1.7,10.07,0.93,14.59-0.06c4.59-1,9.07-2.92,13-5.5c2.18-1.43,3.31-4.49,1.79-6.84
				c-1.4-2.18-4.5-3.33-6.84-1.79c-1.46,0.96-2.98,1.82-4.57,2.56c-0.13,0.06-1.46,0.61-0.41,0.19c-0.41,0.16-0.81,0.32-1.22,0.47
				c-0.96,0.35-1.93,0.65-2.92,0.91c-0.85,0.22-1.7,0.42-2.56,0.58c-0.43,0.08-0.86,0.15-1.29,0.22c1.2-0.18-0.24,0.02-0.41,0.03
				c-0.87,0.08-1.74,0.13-2.62,0.15c-0.43,0.01-0.85,0.01-1.28-0.01c-0.28-0.01-1.99-0.31-0.79-0.04c-0.41-0.09-0.82-0.21-1.23-0.3
				c-1.16-0.26,0.65,0.5-0.35-0.16c-0.97-0.64-0.01-0.08-0.05,0.06c0.01-0.03-0.63-0.58-0.69-0.64c-0.07-0.08-0.14-0.15-0.21-0.23
				c-0.34-0.41-0.27-0.31,0.21,0.28c0.02-0.04-0.45-0.72-0.49-0.79c-0.05-0.09-0.1-0.18-0.15-0.28c-0.23-0.48-0.19-0.37,0.12,0.33
				c0.05-0.07-0.37-1.08-0.41-1.22c-0.09-0.32-0.16-0.64-0.23-0.96c-0.02-0.11-0.04-0.22-0.06-0.33c-0.09-0.55-0.08-0.44,0.03,0.33
				c-0.12-0.03-0.12-1.47-0.13-1.7c-0.03-0.68-0.02-1.37,0.01-2.06c0.03-0.7-0.05-1.69,0.2-2.35c-0.44,1.17-0.01,0.07,0.05-0.3
				c0.06-0.43,0.13-0.87,0.2-1.3c0.14-0.86,0.3-1.72,0.47-2.58c0.36-1.85,0.79-3.69,1.27-5.52c0.92-3.51,2.05-6.96,3.35-10.36
				c0.31-0.82,0.63-1.63,0.96-2.44c0.16-0.4,0.33-0.81,0.5-1.21c-0.44,1.05,0.13-0.29,0.18-0.41c0.7-1.61,1.43-3.2,2.2-4.78
				c1.6-3.31,3.32-6.55,5.12-9.75c4.06-7.18,8.56-14.1,13.16-20.95c-2.88-1.68-5.76-3.36-8.63-5.05
				c-3.06,5.86-6.39,11.57-9.98,17.12c-1.8,2.77-3.66,5.5-5.58,8.19c-0.88,1.23-1.78,2.45-2.68,3.67c-0.5,0.66-1,1.32-1.5,1.98
				c-0.84,1.1,0.63-0.79-0.23,0.3c-0.34,0.43-0.68,0.87-1.02,1.3c-8.12,10.25-17.18,19.76-27.04,28.36
				c-2.8,2.44-5.67,4.81-8.59,7.11c-0.13,0.1-1.22,0.95-0.29,0.23c-0.38,0.29-0.76,0.59-1.15,0.88c-0.71,0.54-1.43,1.08-2.15,1.61
				c-1.55,1.15-3.12,2.27-4.7,3.37c-2.14,1.5-3.34,4.44-1.79,6.84C12.5,125.73,15.68,127,17.97,125.4L17.97,125.4z"/>
		</g>
	</g>
	<g>
		<g>
			<path d="M101.44,11.29c-4.34-0.58-8.83-0.24-13.05,0.93c-4.37,1.22-8.81,3.31-9.49,8.3c-1.35,10.07,10.98,13.51,18.67,13.95
				c4.8,0.27,9.74-0.51,14.21-2.28c2.51-0.99,3.85-4.13,1.65-6.27c-4.75-4.62-11.06-7.26-17.68-7.42c-1.96-0.05-3.84,1.76-3.75,3.75
				c0.09,2.07,1.65,3.7,3.75,3.75c4.51,0.11,9.05,1.99,12.37,5.22c0.55-2.09,1.1-4.18,1.65-6.27c-4.07,1.6-7.7,2.24-12,2.02
				c-2.1-0.11-3.79-0.39-5.97-1.03c-0.53-0.15-1.06-0.32-1.58-0.51c-0.11-0.04-1.08-0.45-0.55-0.2c-0.47-0.21-0.93-0.45-1.37-0.72
				c-0.22-0.13-0.43-0.27-0.64-0.42c0.2,0.17,0.2,0.17,0,0c-0.34-0.28-0.67-0.6-0.94-0.94c0.48,0.62-0.5-1.04-0.17-0.26
				c-0.14-0.33-0.24-0.72-0.3-1.07c0.17,0.87,0.16-1.09-0.01-0.17c0.05-0.23,0.11-0.46,0.19-0.69c-0.14,0.35-0.1,0.33,0.11-0.06
				c-0.48,0.26,0.5-0.31,0.03,0.03c0.12-0.09,1.29-0.7,0.86-0.51c0.46-0.21,0.95-0.36,1.43-0.52c4.18-1.41,8.1-1.72,12.56-1.13
				c1.95,0.26,3.83-1.91,3.75-3.75C105.09,12.78,103.54,11.56,101.44,11.29L101.44,11.29z"/>
		</g>
	</g>
</g>
</svg>
