<?xml version="1.0" standalone="no"?>
<!DOCTYPE svg PUBLIC "-//W3C//DTD SVG 20010904//EN"
 "http://www.w3.org/TR/2001/REC-SVG-20010904/DTD/svg10.dtd">
<svg version="1.0" xmlns="http://www.w3.org/2000/svg"
 width="107.000000pt" height="107.000000pt" viewBox="0 0 107.000000 107.000000"
 preserveAspectRatio="xMidYMid meet">
<metadata>
Created by potrace 1.11, written by Peter Selinger 2001-2013
</metadata>
<g transform="translate(0.000000,107.000000) scale(0.100000,-0.100000)"
fill="#000000" stroke="none">
<path d="M485 1046 c-14 -14 -30 -26 -36 -26 -25 0 -139 -45 -180 -71 -28 -17
-53 -27 -63 -23 -9 3 -27 -1 -41 -10 -19 -12 -25 -25 -25 -51 0 -21 -10 -51
-25 -73 -27 -42 -65 -140 -65 -171 0 -10 -11 -26 -25 -35 -33 -21 -33 -60 0
-90 14 -13 25 -32 25 -43 0 -38 37 -133 73 -185 11 -17 16 -36 12 -48 -11 -34
20 -70 60 -70 21 0 51 -11 77 -28 42 -28 105 -54 162 -67 16 -3 37 -17 48 -30
21 -27 64 -26 85 2 7 9 44 24 82 34 38 10 95 32 127 50 35 20 69 32 85 30 20
-2 32 4 44 23 10 14 15 32 12 41 -4 8 10 40 29 72 31 52 74 166 74 197 0 6 9
17 20 24 26 16 27 66 0 85 -10 7 -24 33 -29 58 -13 58 -36 112 -69 162 -15 22
-27 53 -28 70 -2 37 -25 60 -61 62 -15 0 -62 17 -103 37 -41 20 -95 39 -120
43 -25 4 -52 15 -60 25 -27 32 -57 34 -85 6z m252 -102 c65 -31 71 -37 64 -56
-4 -12 -19 -25 -32 -29 -13 -4 -95 -32 -181 -62 -87 -31 -158 -52 -158 -47 0
22 94 200 106 200 7 0 21 11 31 23 16 21 22 23 58 15 22 -5 72 -24 112 -44z
m-259 26 c10 -17 6 -32 -31 -107 -23 -49 -46 -91 -52 -95 -20 -15 -44 -7 -94
34 -75 61 -70 98 19 143 39 20 107 43 130 44 8 1 21 -8 28 -19z m342 -142 c0
-7 -12 -41 -27 -76 -19 -46 -32 -64 -50 -68 -13 -4 -27 -13 -31 -21 -7 -12
-25 -10 -123 13 -63 15 -120 30 -127 34 -8 4 30 22 95 45 59 20 137 48 173 61
76 27 90 29 90 12z m-532 -53 c39 -31 50 -45 45 -60 -7 -24 11 -13 -117 -78
-59 -31 -114 -53 -122 -50 -19 7 -18 39 3 99 47 140 97 163 191 89z m648 -20
c57 -102 62 -175 14 -175 -42 0 -130 43 -144 70 -12 25 -10 34 17 99 27 64 33
72 55 69 19 -2 33 -18 58 -63z m-343 -109 c53 -12 102 -27 107 -32 16 -16
-164 -214 -189 -207 -13 3 -26 29 -46 91 -15 48 -32 101 -38 119 -14 42 5 67
42 58 14 -4 70 -17 124 -29z m-230 12 c12 -7 23 -14 25 -15 2 0 17 -45 34
-100 16 -54 34 -111 38 -126 9 -28 8 -29 -18 -22 -31 7 -313 125 -325 135 -5
4 -3 13 5 20 10 9 116 68 216 119 1 0 12 -5 25 -11z m587 -134 c5 -12 17 -27
26 -32 17 -9 17 -13 0 -73 -9 -35 -31 -88 -49 -117 -54 -90 -66 -75 -106 122
-23 116 -29 161 -20 166 19 12 140 -41 149 -66z m-183 27 c1 -15 43 -223 58
-289 9 -39 -20 -36 -144 20 -158 70 -159 72 -39 201 62 67 94 94 106 90 10 -2
18 -12 19 -22z m-491 -123 c96 -39 173 -76 171 -82 -3 -11 -111 -69 -175 -96
-27 -10 -36 -11 -41 -1 -5 7 -22 13 -40 13 -27 1 -36 8 -58 45 -36 62 -63 154
-52 176 6 9 12 17 15 17 3 0 84 -32 180 -72z m202 -135 c5 -10 10 -43 11 -73
2 -30 4 -66 4 -80 1 -14 -6 -33 -16 -43 -23 -23 -57 -17 -142 24 -76 37 -97
53 -90 71 5 12 194 114 217 117 4 1 11 -7 16 -16z m193 -38 c112 -50 138 -67
139 -87 0 -13 -141 -77 -186 -84 -39 -6 -47 -4 -60 15 -8 11 -22 21 -30 21
-10 0 -14 14 -15 58 0 31 -3 68 -5 82 -3 16 1 29 13 37 9 7 18 13 19 13 1 0
58 -25 125 -55z"/>
</g>
</svg>
